<?xml version="1.0" standalone="no"?>
<!DOCTYPE svg PUBLIC "-//W3C//DTD SVG 20010904//EN"
 "http://www.w3.org/TR/2001/REC-SVG-20010904/DTD/svg10.dtd">
<svg version="1.0" xmlns="http://www.w3.org/2000/svg"
 width="160.000000pt" height="160.000000pt" viewBox="0 0 160.000000 160.000000"
 preserveAspectRatio="xMidYMid meet">
<metadata>
Created by potrace 1.14, written by Peter Selinger 2001-2017
</metadata>
<g transform="translate(0.000000,160.000000) scale(0.100000,-0.100000)"
fill="#000000" stroke="none">
<path d="M680 1398 c0 -7 9 -28 20 -45 l20 -33 -29 0 c-16 0 -39 -9 -52 -20
-22 -19 -23 -21 -6 -31 29 -17 54 -48 85 -107 l31 -57 -21 -48 c-18 -42 -19
-51 -8 -75 18 -36 23 -97 10 -122 l-11 -21 -29 21 c-33 24 -70 26 -110 5 -111
-57 -93 -237 33 -337 49 -38 52 -43 49 -80 -3 -25 3 -50 16 -72 11 -18 25 -49
31 -68 7 -20 20 -39 29 -43 29 -11 143 6 149 23 7 17 -39 62 -62 62 -11 0 -9
8 8 34 50 76 48 74 43 36 -2 -19 -7 -46 -11 -59 -7 -19 -5 -22 11 -19 40 7 58
94 28 136 -9 13 -14 24 -13 26 28 18 141 66 149 61 27 -17 40 -155 19 -213
-20 -59 -132 -111 -242 -113 -88 -1 -121 -10 -125 -32 -8 -39 185 -13 294 40
108 53 119 70 119 191 0 83 -3 101 -22 127 l-21 30 29 33 c16 18 29 39 29 47
0 26 -28 16 -47 -15 -9 -16 -20 -30 -24 -30 -9 0 -119 111 -119 120 0 10 75
40 100 40 11 0 34 -13 51 -30 31 -29 49 -31 49 -6 0 18 -41 54 -77 67 -27 9
-41 6 -94 -15 l-63 -25 -35 41 c-53 60 -55 67 -34 84 13 11 14 17 6 20 -19 8
-16 20 12 48 32 32 31 42 -4 75 -21 20 -27 32 -20 42 5 8 9 25 9 39 1 30 15
58 55 102 17 18 37 42 45 52 14 18 13 19 -15 14 -16 -4 -52 -1 -78 6 -45 11
-47 13 -30 28 10 8 26 18 35 21 23 8 14 31 -18 46 -35 16 -144 15 -144 -1z
m108 -127 c10 -6 11 -13 1 -35 -16 -33 -34 -30 -67 12 l-25 32 39 0 c22 0 45
-4 52 -9z m26 -237 c9 -3 16 -11 16 -17 0 -18 -32 -47 -51 -47 -18 0 -18 1 -1
35 9 19 18 35 19 35 1 0 8 -3 17 -6z m-131 -214 c17 -17 41 -36 52 -44 17 -12
17 -16 5 -31 -7 -9 -26 -23 -42 -31 -36 -19 -36 -40 2 -59 34 -18 39 -45 16
-100 -15 -34 -15 -34 -45 -19 -36 18 -68 58 -105 131 -38 76 -34 110 16 151
22 17 47 32 54 32 8 0 29 -14 47 -30z m184 -56 c2 -5 -3 -18 -10 -28 -12 -16
-17 -17 -37 -6 l-23 12 24 19 c25 19 40 20 46 3z m87 -90 c62 -71 63 -69 -4
-103 -32 -17 -68 -31 -79 -31 -39 0 -43 78 -6 122 14 16 25 36 25 44 0 26 22
15 64 -32z m-129 16 c4 -6 -8 -10 -29 -10 -20 0 -36 5 -36 10 0 6 13 10 29 10
17 0 33 -4 36 -10z m-38 -92 c-5 -39 -3 -44 39 -86 25 -24 42 -48 37 -52 -18
-15 -96 -31 -124 -25 -35 8 -36 15 -5 44 19 17 25 37 30 92 4 38 12 69 18 69
7 0 9 -15 5 -42z m-4 -203 c2 -12 -38 -19 -59 -11 -9 3 -13 9 -11 13 7 12 67
10 70 -2z"/>
</g>
</svg>
