<svg width="94" height="24" viewBox="0 0 94 24" fill="none" xmlns="http://www.w3.org/2000/svg">
<path d="M5.67457 22.8183L6.06673 20.3279L5.19327 20.3076H1.02238L3.92096 1.9304C3.92981 1.87492 3.95916 1.82319 4.0019 1.78646C4.04463 1.74973 4.09945 1.72949 4.15643 1.72949H11.1892C13.524 1.72949 15.1352 2.21529 15.9765 3.17413C16.3708 3.62396 16.6221 4.094 16.7436 4.61129C16.8709 5.15408 16.8733 5.80256 16.7487 6.59348L16.7397 6.65121V7.15799L17.1342 7.38141C17.4664 7.55757 17.7301 7.75924 17.9326 7.99016C18.2701 8.37474 18.4883 8.86354 18.5805 9.44305C18.6757 10.0391 18.6442 10.7483 18.4883 11.5512C18.3083 12.4748 18.0174 13.2792 17.6246 13.9375C17.2631 14.544 16.8027 15.0469 16.2562 15.4368C15.7343 15.8072 15.1143 16.0884 14.4133 16.2683C13.7338 16.4451 12.9594 16.5344 12.1099 16.5344H11.5626C11.1713 16.5344 10.791 16.6754 10.4927 16.9281C10.1936 17.1859 9.99546 17.5381 9.93481 17.9236L9.89359 18.1478L9.20078 22.5371L9.16927 22.6983C9.16107 22.7494 9.14682 22.7749 9.12589 22.7921C9.10711 22.8077 9.08013 22.8183 9.0538 22.8183H5.67457Z" fill="#253B80"/>
<path d="M17.5063 6.71072C17.4853 6.84491 17.4614 6.9821 17.4344 7.12304C16.5068 11.8843 13.3339 13.5292 9.28126 13.5292H7.21794C6.72239 13.5292 6.30477 13.889 6.2275 14.3778L4.87188 22.976C4.82159 23.2969 5.06915 23.5863 5.39289 23.5863H9.0527C9.48608 23.5863 9.85407 23.2714 9.92227 22.8441L9.95832 22.6581L10.6475 18.2859L10.6917 18.0461C10.759 17.6173 11.1279 17.3025 11.5613 17.3025H12.1086C15.6543 17.3025 18.43 15.863 19.2413 11.6977C19.5802 9.95762 19.4047 8.50473 18.5079 7.4829C18.2366 7.17477 17.9 6.91913 17.5063 6.71072Z" fill="#179BD7"/>
<path d="M16.5342 6.32269C16.3926 6.28145 16.2462 6.24397 16.0962 6.21024C15.9456 6.17726 15.7911 6.14802 15.6322 6.12253C15.0758 6.03256 14.4663 5.98983 13.8132 5.98983H8.30093C8.16518 5.98983 8.03633 6.02056 7.92086 6.07605C7.66661 6.19824 7.47776 6.4389 7.43201 6.73352L6.2592 14.16L6.22553 14.3766C6.30279 13.8878 6.72042 13.528 7.21596 13.528H9.27929C13.3319 13.528 16.505 11.8824 17.4324 7.12186C17.4601 6.98092 17.4834 6.84373 17.5043 6.70955C17.2697 6.58509 17.0154 6.47863 16.7418 6.38791C16.6744 6.36542 16.6047 6.34369 16.5342 6.32269Z" fill="#222D65"/>
<path d="M7.43477 6.73403C7.48053 6.43939 7.66959 6.19874 7.92362 6.07729C8.03996 6.0218 8.16816 5.99107 8.3037 5.99107H13.8162C14.4693 5.99107 15.0788 6.0338 15.635 6.12377C15.794 6.14926 15.9486 6.1785 16.0992 6.21147C16.2492 6.24522 16.3953 6.28271 16.5371 6.32393C16.6075 6.34493 16.6772 6.36666 16.7454 6.38841C17.0191 6.47912 17.2733 6.58633 17.5079 6.71003C17.784 4.9505 17.5058 3.7525 16.5544 2.66769C15.5055 1.47344 13.6122 0.962158 11.1898 0.962158H4.15677C3.66187 0.962158 3.23992 1.32199 3.16331 1.81155L0.234079 20.3776C0.176237 20.7449 0.45962 21.0764 0.829982 21.0764H5.17202L7.43477 6.73403Z" fill="#253B80"/>
<path fill-rule="evenodd" clip-rule="evenodd" d="M34.9447 5.81529H29.795C29.4426 5.81529 29.1429 6.07138 29.088 6.41911L27.0052 19.6229C26.9638 19.8836 27.1656 20.1184 27.4299 20.1184H29.8884C30.2408 20.1184 30.5405 19.8623 30.5954 19.5139L31.1572 15.9527C31.2114 15.6039 31.5118 15.3481 31.8635 15.3481H33.4937C36.8859 15.3481 38.8436 13.7067 39.3551 10.4542C39.5855 9.03123 39.3649 7.91314 38.6983 7.12989C37.9665 6.27033 36.6682 5.81529 34.9447 5.81529ZM35.5388 10.6378C35.2572 12.4855 33.8454 12.4855 32.4802 12.4855H31.7031L32.2483 9.03472C32.2806 8.82636 32.4613 8.67271 32.6722 8.67271H33.0283C33.9583 8.67271 34.8356 8.67271 35.289 9.20266C35.559 9.51902 35.6419 9.9887 35.5388 10.6378ZM50.3383 10.5786H47.8722C47.6621 10.5786 47.4805 10.7322 47.4481 10.9409L47.3391 11.6305L47.1666 11.3806C46.6327 10.6058 45.4424 10.3469 44.2542 10.3469C41.5288 10.3469 39.2015 12.4106 38.7481 15.3056C38.5126 16.7495 38.8474 18.1303 39.6667 19.0933C40.4183 19.9787 41.4936 20.3477 42.7728 20.3477C44.9685 20.3477 46.1864 18.9359 46.1864 18.9359L46.0762 19.6212C46.0348 19.8832 46.2365 20.1181 46.4993 20.1181H48.7207C49.0741 20.1181 49.372 19.862 49.4277 19.5135L50.7606 11.074C50.8028 10.8145 50.6017 10.5786 50.3383 10.5786ZM46.9007 15.3778C46.6627 16.7864 45.5445 17.7321 44.1186 17.7321C43.4025 17.7321 42.83 17.5024 42.4627 17.0673C42.0982 16.6352 41.9595 16.0199 42.0756 15.3349C42.2979 13.9381 43.4349 12.9618 44.8392 12.9618C45.5393 12.9618 46.1087 13.1942 46.4836 13.6332C46.8592 14.0767 47.0084 14.6955 46.9007 15.3778ZM60.9939 10.5782H63.4721C63.8192 10.5782 64.0216 10.9674 63.8244 11.2521L55.5823 23.1479C55.4488 23.3406 55.2289 23.4552 54.9941 23.4552H52.5189C52.1705 23.4552 51.967 23.0629 52.1687 22.7776L54.7351 19.1554L52.0057 11.1458C51.9112 10.8674 52.1168 10.5782 52.413 10.5782H54.848C55.1645 10.5782 55.4436 10.7859 55.5349 11.0887L56.9834 15.9262L60.4015 10.8922C60.5353 10.6957 60.7576 10.5782 60.9939 10.5782Z" fill="#253B80"/>
<path fill-rule="evenodd" clip-rule="evenodd" d="M87.8632 19.6218L89.9766 6.17648C90.009 5.96777 90.1899 5.81412 90.4 5.81342H92.7793C93.042 5.81342 93.2438 6.04895 93.2023 6.30958L91.1182 19.5127C91.0638 19.8611 90.7641 20.1172 90.4111 20.1172H88.2862C88.0235 20.1172 87.8217 19.8824 87.8632 19.6218ZM71.6776 5.81412H66.527C66.1754 5.81412 65.8757 6.07021 65.8206 6.41794L63.7379 19.6218C63.6964 19.8824 63.8982 20.1172 64.1613 20.1172H66.804C67.0497 20.1172 67.2598 19.9381 67.2981 19.6942L67.8891 15.9515C67.9435 15.6027 68.2438 15.347 68.5954 15.347H70.2248C73.6178 15.347 75.5751 13.7056 76.087 10.453C76.318 9.03006 76.096 7.91197 75.4298 7.12872C74.6984 6.26916 73.401 5.81412 71.6776 5.81412ZM72.2717 10.6366C71.9908 12.4843 70.5789 12.4843 69.2129 12.4843H68.4365L68.9826 9.03355C69.015 8.82519 69.1941 8.67154 69.4056 8.67154H69.7617C70.6911 8.67154 71.5692 8.67153 72.0222 9.20148C72.2926 9.51785 72.3748 9.98753 72.2717 10.6366ZM87.0698 10.5774H84.6054C84.3936 10.5774 84.2138 10.7311 84.1821 10.9398L84.073 11.6293L83.8998 11.3795C83.366 10.6046 82.1763 10.3457 80.9881 10.3457C78.2628 10.3457 75.9361 12.4094 75.4827 15.3045C75.2479 16.7483 75.5814 18.1291 76.4006 19.0922C77.1536 19.9775 78.2276 20.3465 79.5068 20.3465C81.7024 20.3465 82.9199 18.9347 82.9199 18.9347L82.8102 19.62C82.7687 19.882 82.9705 20.1169 83.235 20.1169H85.4553C85.8069 20.1169 86.1066 19.8608 86.1617 19.5124L87.4952 11.0729C87.536 10.8133 87.3342 10.5774 87.0698 10.5774ZM83.6325 15.3766C83.3959 16.7853 82.2763 17.7309 80.8501 17.7309C80.1354 17.7309 79.5618 17.5013 79.1942 17.0661C78.8297 16.634 78.6928 16.0187 78.8074 15.3337C79.0308 13.9369 80.1664 12.9606 81.5707 12.9606C82.2711 12.9606 82.8401 13.193 83.2154 13.632C83.5925 14.0756 83.7416 14.6944 83.6325 15.3766Z" fill="#179BD7"/>
</svg>
