<svg width="67" height="22" viewBox="0 0 67 22" fill="none" xmlns="http://www.w3.org/2000/svg">
<path d="M33.3123 1.15641L28.9224 21.6771H23.6141L28.0046 1.15641H33.3123ZM55.6463 14.4067L58.441 6.70046L60.0492 14.4067H55.6463ZM61.569 21.6771H66.4791L62.1944 1.15641H57.6623C56.6439 1.15641 55.7846 1.74875 55.4021 2.66193L47.438 21.6771H53.0126L54.1193 18.6128H60.9299L61.569 21.6771ZM47.7147 14.9769C47.7374 9.56082 40.2248 9.26271 40.2767 6.84335C40.2923 6.10618 40.9944 5.32419 42.5279 5.1235C43.2897 5.02413 45.3843 4.94814 47.7628 6.04253L48.6941 1.69094C47.4166 1.22721 45.7727 0.781006 43.7281 0.781006C38.4815 0.781006 34.7885 3.57057 34.7574 7.56494C34.7242 10.5188 37.3936 12.1672 39.4051 13.1493C41.4731 14.1553 42.1681 14.7996 42.159 15.6992C42.1453 17.0767 40.5092 17.6834 38.9829 17.7074C36.3135 17.7496 34.7645 16.9871 33.5298 16.4117L32.5679 20.9081C33.8078 21.4777 36.0973 21.9726 38.4725 21.9979C44.0483 21.9979 47.6965 19.2428 47.7147 14.9769ZM25.7269 1.15641L17.1263 21.6771H11.5141L7.282 5.30016C7.0248 4.2915 6.80138 3.92259 6.02004 3.49718C4.74509 2.80547 2.6375 2.15533 0.783203 1.75264L0.909853 1.15641H9.94231C11.0932 1.15641 12.1291 1.92281 12.3902 3.24842L14.6258 15.1237L20.1497 1.15641H25.7269Z" fill="#1434CB"/>
</svg>
