<svg width="10" height="10" viewBox="0 0 10 10" fill="none" xmlns="http://www.w3.org/2000/svg">
<path fill-rule="evenodd" clip-rule="evenodd" d="M9.35355 1.58475C9.54882 1.38949 9.54882 1.07291 9.35355 0.877648C9.15829 0.682386 8.84171 0.682386 8.64645 0.877648L5 4.5241L1.35355 0.877648C1.15829 0.682386 0.841709 0.682386 0.646447 0.877648C0.451184 1.07291 0.451184 1.38949 0.646447 1.58475L4.29289 5.2312L0.646447 8.87765C0.451184 9.07291 0.451184 9.38949 0.646447 9.58476C0.841709 9.78002 1.15829 9.78002 1.35355 9.58476L5 5.93831L8.64645 9.58476C8.84171 9.78002 9.15829 9.78002 9.35355 9.58476C9.54882 9.38949 9.54882 9.07291 9.35355 8.87765L5.70711 5.2312L9.35355 1.58475Z" fill="#4C565C"/>
</svg>
