<svg width="32" height="26" viewBox="0 0 32 26" fill="none" xmlns="http://www.w3.org/2000/svg">
<path fill-rule="evenodd" clip-rule="evenodd" d="M1.17157 1.17157C1.92172 0.421427 2.93913 0 4 0H16C17.0609 0 18.0783 0.421427 18.8284 1.17157C19.5786 1.92172 20 2.93913 20 4V22C20 22.5523 19.5523 23 19 23C18.4477 23 18 22.5523 18 22V4C18 3.46957 17.7893 2.96086 17.4142 2.58579C17.0391 2.21071 16.5304 2 16 2H4C3.46957 2 2.96086 2.21071 2.58579 2.58579C2.21071 2.96086 2 3.46957 2 4V20.5C2 20.6326 2.05268 20.7598 2.14645 20.8536C2.24021 20.9473 2.36739 21 2.5 21H5.5C6.05228 21 6.5 21.4477 6.5 22C6.5 22.5523 6.05228 23 5.5 23H2.5C1.83696 23 1.20108 22.7366 0.732233 22.2678C0.263391 21.7989 0 21.163 0 20.5V4C0 2.93913 0.421427 1.92172 1.17157 1.17157Z" fill="#4BB028"/>
<path fill-rule="evenodd" clip-rule="evenodd" d="M10.5 22C10.5 21.4477 10.9477 21 11.5 21H20.5C21.0523 21 21.5 21.4477 21.5 22C21.5 22.5523 21.0523 23 20.5 23H11.5C10.9477 23 10.5 22.5523 10.5 22Z" fill="#4BB028"/>
<path fill-rule="evenodd" clip-rule="evenodd" d="M18 7C18 6.44772 18.4477 6 19 6H24.2814C24.6561 6.00054 25.0259 6.08529 25.3634 6.248C25.7007 6.41057 25.9971 6.64683 26.2309 6.93931L31.45 13.4632C31.4501 13.4633 31.4499 13.4631 31.45 13.4632C31.8049 13.9057 31.999 14.456 32 15.0232L32 15.025L32 20.5C32 21.163 31.7366 21.7989 31.2678 22.2678C30.7989 22.7366 30.163 23 29.5 23H26.5C25.9477 23 25.5 22.5523 25.5 22C25.5 21.4477 25.9477 21 26.5 21H29.5C29.6326 21 29.7598 20.9473 29.8536 20.8536C29.9473 20.7598 30 20.6326 30 20.5V15.026C29.9996 14.9128 29.9609 14.8031 29.89 14.7148L24.6691 8.1887C24.6224 8.13014 24.5625 8.08214 24.495 8.0496C24.4276 8.01713 24.3539 8.00018 24.2791 8H19C18.4477 8 18 7.55228 18 7Z" fill="#4BB028"/>
<path fill-rule="evenodd" clip-rule="evenodd" d="M23.5 20C22.3954 20 21.5 20.8954 21.5 22C21.5 23.1046 22.3954 24 23.5 24C24.6046 24 25.5 23.1046 25.5 22C25.5 20.8954 24.6046 20 23.5 20ZM19.5 22C19.5 19.7909 21.2909 18 23.5 18C25.7091 18 27.5 19.7909 27.5 22C27.5 24.2091 25.7091 26 23.5 26C21.2909 26 19.5 24.2091 19.5 22Z" fill="#4BB028"/>
<path fill-rule="evenodd" clip-rule="evenodd" d="M8.5 20C7.39543 20 6.5 20.8954 6.5 22C6.5 23.1046 7.39543 24 8.5 24C9.60457 24 10.5 23.1046 10.5 22C10.5 20.8954 9.60457 20 8.5 20ZM4.5 22C4.5 19.7909 6.29086 18 8.5 18C10.7091 18 12.5 19.7909 12.5 22C12.5 24.2091 10.7091 26 8.5 26C6.29086 26 4.5 24.2091 4.5 22Z" fill="#4BB028"/>
</svg>
