<svg width="10" height="19" viewBox="0 0 10 19" fill="none" xmlns="http://www.w3.org/2000/svg">
<path d="M4.18005 0.430176L4.5 0.27002L4.85999 0.149902L5.59998 0H6.07996L9.47998 0.27002H9.5L9.15002 3.47021H9.14001L7.26001 3.27002H7.20996L7.01001 3.2998L6.94995 3.33008L6.73999 3.43018C6.71795 3.43403 6.69685 3.44209 6.67798 3.4541C6.6591 3.46611 6.64283 3.48167 6.63 3.5L6.46997 3.68018C6.42957 3.72875 6.39596 3.78224 6.37 3.83984L6.31006 4.02002C6.26993 4.14955 6.24965 4.28432 6.25 4.41992L6.28003 6.43994L9.04004 6.45996L8.64001 9.64014L6.25 9.74023V19H2.5V9.66016H0.5V6.45996H2.43005V6.43994L2.43994 6.3999L2.51001 2.99023L2.54004 2.79004V2.7002L2.56995 2.6001C2.56995 2.5401 2.59 2.4699 2.62 2.3999C2.63801 2.33956 2.66494 2.28233 2.69995 2.22998C2.73995 2.08998 2.77998 1.96986 2.84998 1.85986C2.89998 1.73986 2.97005 1.63002 3.05005 1.52002C3.11005 1.42002 3.19003 1.32023 3.28003 1.24023C3.36003 1.14023 3.44003 1.03996 3.53003 0.959961L4.18005 0.430176Z" fill="white"/>
</svg>
