<svg width="20" height="16" viewBox="0 0 20 16" fill="none" xmlns="http://www.w3.org/2000/svg">
<path d="M20 1.89979C19.2487 2.22503 18.4534 2.43722 17.64 2.52968C18.49 2.02968 19.1399 1.2297 19.4399 0.299697C18.6499 0.759697 17.78 1.09968 16.84 1.27968C16.2748 0.694161 15.5491 0.288684 14.7543 0.11415C13.9594 -0.0603841 13.1307 0.00385997 12.3722 0.29872C11.6137 0.59358 10.9591 1.10629 10.4908 1.77186C10.0225 2.43744 9.76134 3.2264 9.73999 4.03993C9.7409 4.34982 9.77779 4.65848 9.84998 4.95985C8.22397 4.8831 6.63182 4.4682 5.17517 3.74159C3.71852 3.01499 2.4294 1.99291 1.39001 0.740126C0.867474 1.63103 0.707879 2.68882 0.944336 3.69423C1.18079 4.69964 1.79518 5.57542 2.66003 6.14003C1.99003 6.11003 1.36005 5.92978 0.800049 5.62978V5.68007C0.80659 6.62012 1.13914 7.52868 1.74097 8.25087C2.34279 8.97306 3.17651 9.46408 4.09998 9.64003C3.49312 9.80286 2.85737 9.82661 2.23999 9.70985C2.5094 10.516 3.02271 11.2185 3.70886 11.7201C4.39502 12.2217 5.22007 12.4975 6.06995 12.5097C4.34493 13.8434 2.16531 14.4469 0 14.1898C1.88291 15.3767 4.06426 16.0045 6.29004 15.9999C7.85842 16.0233 9.41493 15.7258 10.864 15.1254C12.3131 14.5249 13.624 13.6341 14.7162 12.5082C15.8083 11.3823 16.6586 10.0452 17.2147 8.57851C17.7708 7.11184 18.0211 5.54682 17.95 3.97987C18.75 3.41987 19.45 2.70003 20 1.89003V1.89979Z" fill="white"/>
</svg>
