<svg width="32" height="32" viewBox="0 0 32 32" fill="none" xmlns="http://www.w3.org/2000/svg">
<path fill-rule="evenodd" clip-rule="evenodd" d="M6.83255 5.4187C9.28869 3.28888 12.4938 2 16 2C23.732 2 30 8.26801 30 16C30 19.5062 28.7111 22.7113 26.5813 25.1675L6.83255 5.4187ZM4.94137 4.43681C4.83298 4.48524 4.73145 4.55392 4.6425 4.64287C4.55355 4.73182 4.48486 4.83337 4.43643 4.94176C1.68818 7.8148 0 11.7103 0 16C0 24.8366 7.16344 32 16 32C20.2903 32 24.1863 30.3114 27.0594 27.5624C27.1672 27.5141 27.2682 27.4456 27.3567 27.3571C27.4452 27.2686 27.5137 27.1676 27.5621 27.0598C30.3112 24.1866 32 20.2905 32 16C32 7.16344 24.8366 0 16 0C11.7101 0 7.81444 1.68834 4.94137 4.43681ZM25.1671 26.5816C22.711 28.7113 19.506 30 16 30C8.26801 30 2 23.732 2 16C2 12.494 3.28875 9.28903 5.41836 6.83294L25.1671 26.5816Z" fill="#FF0000"/>
</svg>
